<svg height="29.328pt" width="266.928pt" xmlns="http://www.w3.org/2000/svg"><path d="m66.4619 29.2175c0-.8054.8236-1.4644 1.8303-1.4644 1.0066 0 1.8302-.659 1.8302-1.4644s.8236-1.4643 1.8303-1.4643c1.0066 0 1.8302-.659 1.8302-1.4644s.7596-1.4643 1.6879-1.4643c.9284 0 1.9896-.9229 2.3582-2.0507.7184-2.1978 3.2749-1.695 3.2749.6439 0 .7737.8236 1.4068 1.8302 1.4068 1.0067 0 1.8303.6589 1.8303 1.4643s.8236 1.4644 1.8302 1.4644c1.0067 0 1.8303.6589 1.8303 1.4643s.8236 1.4644 1.8302 1.4644c1.0067 0 1.8303.659 1.8303 1.4644 0 1.2086-2.237 1.4643-12.8118 1.4643-10.5747 0-12.8117-.2557-12.8117-1.4643zm18.934-3.7377c-3.0317-2.3241-5.5555-4.8501-5.6085-5.6133-.078-1.1241-.2257-1.1095-.7776.0767-.3747.8054-3.0863 3.3314-6.0259 5.6134l-5.3447 4.149h11.6344 11.6345zm12.7407.5649c-.0535-3.9517-6.2388-11.1568-7.8202-9.1096-.4484.5806-1.387 1.0556-2.0856 1.0556-.6985 0 .7065-1.5815 3.1225-3.5145 2.4159-1.9329 4.3926-3.8527 4.3926-4.2662 0-1.42218 10.9951-3.33719 12.4551-2.16922.888.70993 2.075.75782 3.514.14169 4.639-1.98634 14.825 3.81723 15.246 8.68683.282 3.2566-.647 3.6924-4.424 2.0753-3.584-1.535-7.269 1.9399-7.269 6.856 0 2.1477-.549 3.905-1.22 3.905s-1.22-1.4394-1.22-3.1986c0-3.1472-.079-3.1926-4.92-2.8231-4.041.3082-4.669.6185-3.511 1.7342.951.9173.984 1.3588.1 1.3588-.72 0-1.869-.7688-2.553-1.7085-1.03-1.4151-1.25-1.1637-1.28 1.4644-.052 4.4513-2.4668 3.9849-2.5274-.4881zm19.4124-10.3404c1.425-1.3738.676-2.6052-1.569-2.5798-.727.0083-.498.4408.509.9612 1.577.8156 1.545.9485-.233.9613-2.731.0198-4.057-1.8246-2.315-3.2184 1.038-.8302 2.027-.7917 3.917.1527 3.215 1.6066 4.599.6036 2.017-1.4622-4.193-3.35424-11.976 1.4551-8.218 5.0779 1.837 1.7714 4.123 1.813 5.892.1073zm-108.43482 8.1306c0-4.285-6.44962-12.2081-7.68776-9.4441-.28561.6376-.87249.9003-1.304166.5836-.431675-.3166.316759-1.5919 1.663206-2.834 1.34643-1.2421 2.45647-2.74028 2.46675-3.32929.0557-3.19397 4.39434-4.74249 12.79309-4.56602 1.3421.02819 4.1299.0487 6.195.04555 2.2244-.00339 4.6636.79784 5.9849 1.96597 1.2266 1.08443 2.9014 1.9717 3.7219 1.9717 2.4117 0 4.3416 2.52539 4.6001 6.01939.1963 2.6525-.2108 3.2653-2.1995 3.3109-1.3422.0309-3.9503.3687-5.7958.7508-2.9531.6115-3.3554 1.1607-3.3554 4.5811 0 2.1375-.5491 3.8864-1.2202 3.8864s-1.2202-1.365-1.2202-3.0332c0-2.3648-.4253-2.9026-1.93-2.4406-1.0615.3259-3.0505.5926-4.42.5926-2.0749 0-2.2367.244-.9709 1.4643 1.0943 1.055 1.1254 1.4644.111 1.4644-.7743 0-1.7239-.659-2.1102-1.4644-1.1076-2.3094-2.8815-1.7084-2.8815.9763 0 1.3423-.5491 2.4406-1.2202 2.4406-.67108 0-1.22016-1.3239-1.22016-2.942zm13.42182-4.3798c.8354-.8054 2.5226-1.4644 3.7493-1.4644 1.2266 0 2.7899-.7688 3.4739-1.7084.6841-.9396 1.2604-1.2193 1.2808-.6214.0204.5978 1.2205 1.0371 2.6668.9762 3.4275-.1444 3.8875-2.9225.9474-5.7229-1.8405-1.75315-2.5283-1.92982-3.3997-.8733-.7624.9243-1.3447.9981-1.9271.2441-1.4693-1.90211-5.5713-1.26007-5.5713.872 0 1.1176.8135 1.9525 1.9023 1.9525 1.0463 0 1.5629-.4393 1.1482-.9762-.4148-.537-.1269-.9763.6397-.9763s1.1651.5492.8855 1.2203c-.2796.6712-1.8354 1.2203-3.4572 1.2203-4.5037 0-4.691-3.85217-.278-5.71967 2.9558-1.25083 3.1327-1.54456 1.2793-2.12416-1.1829-.36994-2.8946-.17874-3.8036.42488-1.2511.83074-2.0363.72785-3.2304-.42333-.9255-.89222-2.3793-1.24611-3.5173-.85618-1.0669.36555-3.1171.61397-4.556.55204-3.35302-.14433-4.88619 1.38842-5.9516 5.94992-.7004 2.9987-.49947 3.6609 1.11098 3.6609 1.08132 0 1.96604.6054 1.96604 1.3453 0 3.6079 11.56408 6.015 14.64198 3.0478zm24.4033 2.5218c0-1.6295-1.0961-4.4011-2.4358-6.1591s-2.4378-4.019-2.4403-5.0244c-.0034-1.51404-.3189-1.61924-1.8348-.6126-4.0493 2.6887-1.4904-.83659 3.3872-4.66666 6.8121-5.349002 14.2615-6.483309 20.9282-3.18671 2.3971 1.18534 4.3584 2.55864 4.3584 3.05178s1.3055.89662 2.9011.89662c4.1311 0 5.5994 1.87757 4.5878 5.86677-.7635 3.0107-1.3558 3.4452-5.0867 3.7313-5.6552.4337-7.2828 1.71-7.2828 5.7108 0 1.988-.4971 3.1091-1.2202 2.7516-.6711-.3319-1.2201-1.4137-1.2201-2.404 0-1.4649-1.1378-1.8638-6.1016-2.139-5.5943-.3101-6.1015-.1604-6.1008 1.8007.0004 1.1764-.5484 2.4104-1.2194 2.7423-.7111.3516-1.2202-.6329-1.2202-2.3594zm16.1087-4.3347c1.3081-.7953 1.8267-2.0279 1.4011-3.3301-.3716-1.1371.2161-3.4977 1.3061-5.24593 1.9469-3.12249 1.9223-3.21979-1.4011-5.52184-2.8893-2.0014-4.2408-2.26354-9.2623-1.79647-12.8503 1.19526-16.2456 11.02784-5.454 15.79434 3.6866 1.6283 10.8091 1.6814 13.4102.1zm11.3688-3.8005c.3065-.6712.7011-2.3186.8768-3.6609.2755-2.10409-.2274-2.4828-3.6468-2.74658-3.3285-.25676-4.1624.10664-5.1857 2.2601-2.1128 4.44608-1.5823 5.36768 3.0895 5.36768 2.3699 0 4.5597-.5492 4.8662-1.2203zm58.7142 9.3291c-.429-.3434-.784-1.9788-.788-3.6344-.003-1.6555-.827-4.2684-1.83-5.8063-1.002-1.5379-1.823-3.4588-1.823-4.26856 0-1.19803-.341-1.2459-1.83-.257-3.933 2.61146-1.541-.32695 3.784-4.64837 5.277-4.282819 6.001-4.55617 12.063-4.55617 5.183 0 7.058.468905 9.551 2.38911 2.305 1.7747 2.768 2.71188 1.801 3.64425-.716.69034-1.638 4.87124-2.049 9.29094-.699 7.5204-2.699 10.7854-3.577 5.8392-.344-1.9387-1.096-2.1966-6.406-2.1966-5.141 0-6.016.2755-6.016 1.8949 0 2.0376-1.608 3.3268-2.88 2.309zm20.57-9.2668c-.328-.7054-.147-2.6005.401-4.21134.819-2.40568 1.635-2.92872 4.57-2.92872 3.355 0 3.573.23827 3.573 3.90496 0 3.6937-.215 3.9215-3.974 4.2114-2.462.1898-4.201-.1815-4.57-.9763z" transform="translate(2.58364 3.03304)"/><path d="m149.785 13.787c.36.788 2.054 1.1562 4.453.968 3.664-.2874 3.873-.5133 3.873-4.1759 0-3.63585-.212-3.87211-3.482-3.87211-2.86 0-3.655.51863-4.453 2.90406-.534 1.59725-.71 3.47635-.391 4.17595zm-20.046 9.1887c1.24 1.0092 2.807-.2691 2.807-2.2896 0-1.6058.852-1.8789 5.863-1.8789 5.174 0 5.907.2557 6.242 2.1781.856 4.9046 2.805 1.6671 3.486-5.7901.4-4.3824 1.299-8.52812 1.997-9.21264.942-.92452.491-1.85381-1.755-3.61357-2.43-1.904033-4.257-2.36899-9.308-2.36899-5.908 0-6.613.271049-11.756 4.5178-5.189 4.28504-7.52 7.1988-3.687 4.60924 1.451-.98058 1.783-.93311 1.783.25483 0 .80293.8 2.70763 1.777 4.23263s1.78 4.1158 1.783 5.7574c.004 1.6416.35 3.2633.768 3.6038zm-57.2183-9.2506c-.2987.6655-2.4326 1.2101-4.7421 1.2101-4.5529 0-5.0698-.9138-3.0108-5.32251.9972-2.13532 1.8098-2.49567 5.0536-2.24106 3.3323.26155 3.8223.63708 3.5538 2.72347-.1712 1.331-.5558 2.9645-.8545 3.63zm-11.0791 3.7685c-2.5348 1.5681-9.4759 1.5155-13.0685-.0991-10.5166-4.7264-7.2079-14.47616 5.315-15.66136 4.8936-.46313 6.2107-.2032 9.0264 1.78135 3.2386 2.28266 3.2627 2.37914 1.3654 5.47535-1.0623 1.73346-1.635 4.07426-1.2729 5.20176.4148 1.2912-.0906 2.5134-1.3654 3.302zm-15.6983 4.2982c0 1.712.4962 2.6882 1.1891 2.3395.654-.329 1.1888-1.5526 1.1883-2.7191-.0006-1.9446.4937-2.0931 5.9454-1.7855 4.8374.2729 5.9462.6683 5.9462 2.1209 0 .982.535 2.0547 1.189 2.3837.7046.3546 1.1891-.7571 1.1891-2.7284 0-3.9671 1.5861-5.2326 7.0973-5.6626 3.6358-.2837 4.213-.7146 4.9571-3.7.9858-3.95555-.4451-5.81732-4.471-5.81732-1.5549 0-2.8271-.40008-2.8271-.88907 0-.48898-1.9113-1.85072-4.2474-3.02608-6.4969-3.268838-13.7565-2.144083-20.3949 3.15988-4.7534 3.79782-7.2471 7.29349-3.301 4.62739 1.4774-.99819 1.7847-.89387 1.7881.6074.002.997 1.0726 3.2389 2.3781 4.9821 1.3056 1.7432 2.3737 4.4914 2.3737 6.1072zm-23.7815-2.5006c-2.9995 2.9423-14.2689.5555-14.2689-3.0221 0-.7337-.86218-1.3339-1.91595-1.3339-1.56941 0-1.76523-.6566-1.08268-3.6301 1.03827-4.52309 2.53238-6.04293 5.79993-5.89982 1.4022.06141 3.4002-.18492 4.4399-.54739 1.109-.38665 2.5258-.03573 3.4277.84897 1.1637 1.14148 1.9289 1.24351 3.1481.41976.8859-.59854 2.5539-.78812 3.7067-.4213 1.8062.57473 1.6338.86598-1.2466 2.10628-4.3006 1.85177-4.1182 5.6715.2709 5.6715 1.5804 0 3.0965-.5445 3.369-1.21s-.1158-1.21-.8629-1.21-1.0276.4356-.6234.968-.0993.968-1.1189.968c-1.0611 0-1.8538-.8279-1.8538-1.936 0-2.11416 3.9974-2.75079 5.4293-.8647.5675.7476 1.135.6745 1.8779-.24199.8493-1.04768 1.5195-.8725 3.3132.86589 2.8651 2.7769 2.4169 5.5316-.9233 5.6747-1.4095.0604-2.579-.3752-2.5988-.968s-.5816-.3155-1.2482.6162-2.19 1.694-3.3855 1.694c-1.1954 0-2.8395.6534-3.6537 1.452zm-13.07983 4.343h-.00004c0 1.6045.53509 2.9172 1.18907 2.9172.654 0 1.1891-1.089 1.1891-2.4201 0-2.662 1.7287-3.2579 2.8081-.968.3765.7986 1.3019 1.4521 2.0565 1.4521.9885 0 .9582-.4059-.1083-1.4521-1.2335-1.21-1.0758-1.452.9462-1.452 1.3346 0 3.2729-.2644 4.3074-.5876 1.4664-.4581 1.8809.0752 1.8809 2.4201 0 1.6542.5351 3.0076 1.1891 3.0076s1.189-1.7341 1.189-3.8536c0-3.3917.3921-3.9363 3.27-4.5425 1.7985-.3789 4.3401-.7139 5.6481-.7445 1.938-.0453 2.3347-.6529 2.1435-3.2831-.252-3.4646-2.1327-5.96868-4.4829-5.96868-.7996 0-2.4318-.87979-3.6272-1.95509-1.2876-1.15829-3.6646-1.95278-5.8324-1.94942-2.0124.00312-4.7292-.01721-6.0371-.04517-8.18475-.17498-12.41284 1.3605-12.46713 4.52758-.01.58405-1.09177 2.06958-2.4039 3.30128-1.312143 1.2316-2.041503 2.4962-1.620833 2.8102.42068.3139.992613.0535 1.270943-.5788 1.20659-2.7407 7.49189 5.1156 7.49189 9.3646zm105.67203-8.0621c-1.724 1.6913-3.952 1.65-5.742-.1065-3.662-3.5922 3.923-8.36107 8.009-5.0351 2.516 2.0485 1.168 3.043-1.966 1.4499-1.842-.9364-2.806-.9747-3.817-.1514-1.698 1.382-.405 3.2109 2.256 3.1913 1.732-.0127 1.764-.1445.227-.9532-.981-.5161-1.204-.945-.496-.9532 2.188-.0251 2.918 1.196 1.529 2.5582zm-18.9178 10.2533h.0001c.0591 4.4354 2.4119 4.8978 2.4626.484.03-2.606.2442-2.8553 1.2482-1.452.6669.9317 1.7859 1.694 2.4879 1.694.861 0 .829-.4378-.098-1.3473-1.128-1.1063-.516-1.414 3.421-1.7197 4.719-.3663 4.795-.3213 4.795 2.7994 0 1.7444.536 3.1717 1.19 3.1717s1.189-1.7425 1.189-3.8721c0-4.8748 3.59-8.3204 7.083-6.7983 3.681 1.6035 4.586 1.1713 4.311-2.0578-.41-4.8286-10.337-10.58334-14.857-8.61372-1.403.61093-2.56.56345-3.425-.1405-1.422-1.15814-12.1376.74075-12.1376 2.15102 0 .4099-1.9263 2.3136-4.2807 4.2302-2.3544 1.9167-3.7237 3.4849-3.0429 3.4849s1.5954-.471 2.0325-1.0467c1.5411-2.03 7.5687 5.1145 7.6209 9.0329zm-12.4161-.5601 5.3717 4.1902h-11.3379-11.338l5.2085-4.1141c2.8646-2.2628 5.5072-4.7675 5.8724-5.5661.5378-1.1763.6817-1.1907.7577-.0761.0516.7568 2.5112 3.2615 5.4656 5.5661zm-18.4515 3.7061c0 1.1985 2.1799 1.4521 12.4853 1.4521 10.3053 0 12.4853-.2536 12.4853-1.4521 0-.7986-.8027-1.452-1.7837-1.452-.9809 0-1.7836-.6534-1.7836-1.452s-.8026-1.452-1.7836-1.452-1.7836-.6535-1.7836-1.4521-.8026-1.452-1.7836-1.452-1.7836-.6277-1.7836-1.3949c0-2.3193-2.4914-2.8177-3.1914-.6385-.3593 1.1183-1.3934 2.0334-2.2982 2.0334-.9047 0-1.6449.6534-1.6449 1.452s-.8026 1.4521-1.7836 1.4521-1.7836.6534-1.7836 1.452-.8026 1.452-1.7836 1.452-1.7836.6534-1.7836 1.452z" transform="translate(173.102 3.03304)"/></svg>